<?xml version="1.0"?>
<!DOCTYPE svg PUBLIC "-//W3C//DTD SVG 1.1//EN" "http://www.w3.org/Graphics/SVG/1.1/DTD/svg11.dtd">
<svg width="61.83421383020892mm" height="71.21243556529821mm" viewBox="0 0 61.83421383020892 71.21243556529821" xmlns="http://www.w3.org/2000/svg" version="1.1">
<g id="Body002" transform="translate(30.917107,35.606218) scale(1,-1)">
<path id="Body002_f0000"  d="M 0.0 35.0 L 30.310889132455348 17.500000000000004 L 30.310889132455348 17.500000000000004 L 0.0 35.0 L 0.0 35.0 Z " stroke="#191919" stroke-width="0.35 px" style="stroke-width:0.35;stroke-miterlimit:4;stroke-dasharray:none;fill:#47cc80;fill-opacity:1.0;fill-rule: evenodd"/>
<path id="Body002_f0001"  d="M 30.310889132455348 17.500000000000004 L 30.31088913245535 -17.499999999999996 L 30.31088913245535 -17.499999999999996 L 30.310889132455348 17.500000000000004 L 30.310889132455348 17.500000000000004 Z " stroke="#191919" stroke-width="0.35 px" style="stroke-width:0.35;stroke-miterlimit:4;stroke-dasharray:none;fill:#47cc80;fill-opacity:1.0;fill-rule: evenodd"/>
<path id="Body002_f0002"  d="M -30.31088913245535 17.499999999999996 L 0.0 35.0 L 0.0 35.0 L -30.31088913245535 17.499999999999996 L -30.31088913245535 17.499999999999996 Z " stroke="#191919" stroke-width="0.35 px" style="stroke-width:0.35;stroke-miterlimit:4;stroke-dasharray:none;fill:#47cc80;fill-opacity:1.0;fill-rule: evenodd"/>
<path id="Body002_f0003"  d="M 30.31088913245535 -17.499999999999996 L 30.310889132455348 17.500000000000004 L 0.0 35.0 L -30.31088913245535 17.499999999999996 L -30.310889132455348 -17.500000000000004 L 0.0 -35.0 L 30.31088913245535 -17.499999999999996 Z M 7.000000000000002 1.6653345369377346e-16 A 7 7 0 1 0 -2.5 6.53835L -2.500000000000001 14.0 A 2.5 2.5 0 0 0 2.5 14L 2.5 6.53834841531101 A 7 7 0 0 0 7 3.33067e-16Z " stroke="#191919" stroke-width="0.35 px" style="stroke-width:0.35;stroke-miterlimit:4;stroke-dasharray:none;fill:#47cc80;fill-opacity:1.0;fill-rule: evenodd"/>
<path id="Body002_f0004"  d="M 30.310889132455348 17.500000000000004 L 0.0 35.0 L -30.31088913245535 17.499999999999996 L -30.310889132455348 -17.500000000000004 L 0.0 -35.0 L 30.31088913245535 -17.499999999999996 L 30.310889132455348 17.500000000000004 Z M 2.5000000000000004 6.5383484153110105 L 2.5 14.0 A 2.5 2.5 0 0 1 -2.5 14L -2.500000000000001 6.538348415311013 A 7 7 0 1 1 7 -1.71451e-15A 7 7 0 0 1 2.5 6.53835Z " stroke="#191919" stroke-width="0.35 px" style="stroke-width:0.35;stroke-miterlimit:4;stroke-dasharray:none;fill:#47cc80;fill-opacity:1.0;fill-rule: evenodd"/>
<path id="Body002_f0005"  d="M 30.31088913245535 -17.499999999999996 L 0.0 -35.0 L 0.0 -35.0 L 30.31088913245535 -17.499999999999996 L 30.31088913245535 -17.499999999999996 Z " stroke="#191919" stroke-width="0.35 px" style="stroke-width:0.35;stroke-miterlimit:4;stroke-dasharray:none;fill:#47cc80;fill-opacity:1.0;fill-rule: evenodd"/>
<path id="Body002_f0006"  d="M -30.310889132455348 -17.500000000000004 L -30.31088913245535 17.499999999999996 L -30.31088913245535 17.499999999999996 L -30.310889132455348 -17.500000000000004 L -30.310889132455348 -17.500000000000004 Z " stroke="#191919" stroke-width="0.35 px" style="stroke-width:0.35;stroke-miterlimit:4;stroke-dasharray:none;fill:#47cc80;fill-opacity:1.0;fill-rule: evenodd"/>
<path id="Body002_f0007"  d="M 0.0 -35.0 L -30.310889132455348 -17.500000000000004 L -30.310889132455348 -17.500000000000004 L 0.0 -35.0 L 0.0 -35.0 Z " stroke="#191919" stroke-width="0.35 px" style="stroke-width:0.35;stroke-miterlimit:4;stroke-dasharray:none;fill:#47cc80;fill-opacity:1.0;fill-rule: evenodd"/>
<path id="Body002_f0008"  d="M 2.5000000000000004 6.53834841531101 L 2.5000000000000004 6.53834841531101 A 7 7 0 0 0 7 1.71451e-15L 7.0 0.0 A 7 7 0 0 1 2.5 6.53835Z " stroke="#191919" stroke-width="0.35 px" style="stroke-width:0.35;stroke-miterlimit:4;stroke-dasharray:none;fill:#47cc80;fill-opacity:1.0;fill-rule: evenodd"/>
<path id="Body002_f0009"  d="M 2.5 14.0 L 2.5 14.0 L 2.5 6.53834841531101 L 2.5000000000000004 6.53834841531101 L 2.5000000000000004 14.0 Z " stroke="#191919" stroke-width="0.35 px" style="stroke-width:0.35;stroke-miterlimit:4;stroke-dasharray:none;fill:#47cc80;fill-opacity:1.0;fill-rule: evenodd"/>
<path id="Body002_f0010"  d="M -2.5000000000000013 14.0 L -2.5000000000000013 14.0 A 2.5 2.5 0 0 0 2.5 14L 2.5 14.0 A 2.5 2.5 0 0 1 -2.5 14Z " stroke="#191919" stroke-width="0.35 px" style="stroke-width:0.35;stroke-miterlimit:4;stroke-dasharray:none;fill:#47cc80;fill-opacity:1.0;fill-rule: evenodd"/>
<path id="Body002_f0011"  d="M -2.5000000000000013 6.538348415311013 L -2.5000000000000013 14.0 L -2.500000000000001 14.0 L -2.500000000000001 6.538348415311013 L -2.5000000000000013 6.538348415311013 Z " stroke="#191919" stroke-width="0.35 px" style="stroke-width:0.35;stroke-miterlimit:4;stroke-dasharray:none;fill:#47cc80;fill-opacity:1.0;fill-rule: evenodd"/>
<path id="Body002_f0012"  d="M -2.500000000000001 6.538348415311013 A 7 7 0 1 1 7 -1.71451e-15L 7.0 0.0 A 7 7 0 1 0 -2.5 6.53835L -2.5000000000000013 6.538348415311013 Z " stroke="#191919" stroke-width="0.35 px" style="stroke-width:0.35;stroke-miterlimit:4;stroke-dasharray:none;fill:#47cc80;fill-opacity:1.0;fill-rule: evenodd"/>
<title>b'Mount slot'</title>
</g>
</svg>