<?xml version="1.0"?>
<!DOCTYPE svg PUBLIC "-//W3C//DTD SVG 1.1//EN" "http://www.w3.org/Graphics/SVG/1.1/DTD/svg11.dtd">
<svg width="61.834213830209364mm" height="71.21243556529842mm" viewBox="0 0 61.834213830209364 71.21243556529842" xmlns="http://www.w3.org/2000/svg" version="1.1">
<g id="Body003" transform="translate(30.917107,35.606218) scale(1,-1)">
<path id="Body003_f0000"  d="M 21.434128743664854 22.625 L 21.434128743664854 22.625 L 30.310889132455415 17.499999999999968 L 30.310889132455415 17.499999999999968 L 21.434128743664854 22.625 Z " stroke="#191919" stroke-width="0.35 px" style="stroke-width:0.35;stroke-miterlimit:4;stroke-dasharray:none;fill:#f012f7;fill-opacity:1.0;fill-rule: evenodd"/>
<path id="Body003_f0001"  d="M 15.934128743664855 13.098720558371173 L 9.655444566227676 16.723720558371173 L 3.376760388790495 20.348720558371173 L 8.876760388790494 29.875 L 0.0 35.0 L -8.876760388790496 29.875000000000004 L -3.3767603887904967 20.348720558371177 L -9.655444566227677 16.72372055837118 L -15.934128743664857 13.098720558371179 L -21.434128743664857 22.625000000000004 L -30.310889132455728 17.50000000000034 L -30.310889132455355 7.249999999999996 L -19.310889132455355 7.25 L -19.31088913245535 0.0 L -19.31088913245535 -7.250000000000001 L -30.31088913245535 -7.250000000000001 L -30.31088913245573 -17.50000000000007 L -21.434128743664854 -22.625 L -15.934128743664854 -13.098720558371173 L -9.655444566227672 -16.72372055837117 L -3.376760388790488 -20.348720558371166 L -8.87676038879049 -29.874999999999993 L -7.8e-14 -35.0000000000002 L 8.876760388790501 -29.875000000000004 L 3.376760388790501 -20.34872055837118 L 9.655444566227677 -16.723720558371173 L 15.934128743664859 -13.098720558371175 L 21.43412874366486 -22.625 L 30.310889132455404 -17.500000000000075 L 30.310889132455355 -7.250000477203435 L 19.31088913245535 -7.25 L 19.31088913245535 0.0 L 19.31088913245535 7.25 L 30.31088913245535 7.250000000000001 L 30.310889132455415 17.499999999999968 L 21.434128743664854 22.625 L 15.934128743664855 13.098720558371173 Z " stroke="#191919" stroke-width="0.35 px" style="stroke-width:0.35;stroke-miterlimit:4;stroke-dasharray:none;fill:#f012f7;fill-opacity:1.0;fill-rule: evenodd"/>
<path id="Body003_f0002"  d="M 21.434128743664854 22.625 L 15.934128743664855 13.098720558371173 L 15.934128743664855 13.098720558371173 L 21.434128743664854 22.625 L 21.434128743664854 22.625 Z " stroke="#191919" stroke-width="0.35 px" style="stroke-width:0.35;stroke-miterlimit:4;stroke-dasharray:none;fill:#f012f7;fill-opacity:1.0;fill-rule: evenodd"/>
<path id="Body003_f0003"  d="M 30.31088913245535 7.250000000000001 L 30.310889132455415 17.499999999999968 L 21.434128743664854 22.625 L 15.934128743664855 13.098720558371173 L 9.655444566227676 16.723720558371173 L 3.376760388790495 20.348720558371173 L 8.876760388790494 29.875 L 0.0 35.0 L -8.876760388790496 29.875000000000004 L -3.3767603887904967 20.348720558371177 L -9.655444566227677 16.72372055837118 L -15.934128743664857 13.098720558371179 L -21.434128743664857 22.625000000000004 L -30.310889132455728 17.50000000000034 L -30.310889132455355 7.249999999999996 L -19.310889132455355 7.25 L -19.31088913245535 0.0 L -19.31088913245535 -7.250000000000001 L -30.31088913245535 -7.250000000000001 L -30.31088913245573 -17.50000000000007 L -21.434128743664854 -22.625 L -15.934128743664854 -13.098720558371173 L -9.655444566227672 -16.72372055837117 L -3.376760388790488 -20.348720558371166 L -8.87676038879049 -29.874999999999993 L -7.8e-14 -35.0000000000002 L 8.876760388790501 -29.875000000000004 L 3.376760388790501 -20.34872055837118 L 9.655444566227677 -16.723720558371173 L 15.934128743664859 -13.098720558371175 L 21.43412874366486 -22.625 L 30.310889132455404 -17.500000000000075 L 30.310889132455355 -7.250000477203435 L 19.31088913245535 -7.25 L 19.31088913245535 0.0 L 19.31088913245535 7.25 L 30.31088913245535 7.250000000000001 Z " stroke="#191919" stroke-width="0.35 px" style="stroke-width:0.35;stroke-miterlimit:4;stroke-dasharray:none;fill:#f012f7;fill-opacity:1.0;fill-rule: evenodd"/>
<path id="Body003_f0004"  d="M 30.31088913245535 7.250000000000001 L 30.31088913245535 7.250000000000001 L 30.310889132455415 17.499999999999968 L 30.310889132455415 17.499999999999968 L 30.31088913245541 7.25 Z " stroke="#191919" stroke-width="0.35 px" style="stroke-width:0.35;stroke-miterlimit:4;stroke-dasharray:none;fill:#f012f7;fill-opacity:1.0;fill-rule: evenodd"/>
<path id="Body003_f0005"  d="M 19.31088913245535 7.25 L 19.31088913245535 7.25 L 30.31088913245535 7.250000000000001 L 30.31088913245535 7.250000000000001 L 19.31088913245535 7.25 Z " stroke="#191919" stroke-width="0.35 px" style="stroke-width:0.35;stroke-miterlimit:4;stroke-dasharray:none;fill:#f012f7;fill-opacity:1.0;fill-rule: evenodd"/>
<path id="Body003_f0006"  d="M 19.31088913245535 0.0 L 19.31088913245535 0.0 L 19.31088913245535 7.25 L 19.31088913245535 7.25 L 19.31088913245535 0.0 Z " stroke="#191919" stroke-width="0.35 px" style="stroke-width:0.35;stroke-miterlimit:4;stroke-dasharray:none;fill:#f012f7;fill-opacity:1.0;fill-rule: evenodd"/>
<path id="Body003_f0007"  d="M 19.31088913245535 -7.25 L 19.31088913245535 0.0 L 19.31088913245535 0.0 L 19.31088913245535 -7.25 L 19.31088913245535 -7.25 Z " stroke="#191919" stroke-width="0.35 px" style="stroke-width:0.35;stroke-miterlimit:4;stroke-dasharray:none;fill:#f012f7;fill-opacity:1.0;fill-rule: evenodd"/>
<path id="Body003_f0008"  d="M 30.310889132455355 -7.250000477203435 L 19.31088913245535 -7.25 L 19.31088913245535 -7.25 L 30.310889132455355 -7.250000477203435 L 30.310889132455355 -7.250000477203435 Z " stroke="#191919" stroke-width="0.35 px" style="stroke-width:0.35;stroke-miterlimit:4;stroke-dasharray:none;fill:#f012f7;fill-opacity:1.0;fill-rule: evenodd"/>
<path id="Body003_f0009"  d="M 30.310889132455355 -7.250000477203435 L 30.310889132455355 -7.250000477203435 L 30.310889132455404 -17.500000000000075 L 30.310889132455404 -17.500000000000075 L 30.310889132455355 -7.250000477203435 Z " stroke="#191919" stroke-width="0.35 px" style="stroke-width:0.35;stroke-miterlimit:4;stroke-dasharray:none;fill:#f012f7;fill-opacity:1.0;fill-rule: evenodd"/>
<path id="Body003_f0010"  d="M 21.43412874366486 -22.625 L 21.43412874366486 -22.625 L 30.310889132455404 -17.500000000000075 L 30.310889132455404 -17.500000000000075 L 21.43412874366491 -22.625000000000085 Z " stroke="#191919" stroke-width="0.35 px" style="stroke-width:0.35;stroke-miterlimit:4;stroke-dasharray:none;fill:#f012f7;fill-opacity:1.0;fill-rule: evenodd"/>
<path id="Body003_f0011"  d="M 15.934128743664859 -13.098720558371175 L 15.934128743664859 -13.098720558371175 L 21.43412874366486 -22.625 L 21.43412874366486 -22.625 L 15.934128743664859 -13.098720558371175 Z " stroke="#191919" stroke-width="0.35 px" style="stroke-width:0.35;stroke-miterlimit:4;stroke-dasharray:none;fill:#f012f7;fill-opacity:1.0;fill-rule: evenodd"/>
<path id="Body003_f0012"  d="M 9.655444566227677 -16.723720558371173 L 9.655444566227677 -16.723720558371173 L 15.934128743664859 -13.098720558371175 L 15.934128743664859 -13.098720558371175 L 9.655444566227677 -16.723720558371173 Z " stroke="#191919" stroke-width="0.35 px" style="stroke-width:0.35;stroke-miterlimit:4;stroke-dasharray:none;fill:#f012f7;fill-opacity:1.0;fill-rule: evenodd"/>
<path id="Body003_f0013"  d="M 3.376760388790501 -20.34872055837118 L 9.655444566227677 -16.723720558371173 L 9.655444566227677 -16.723720558371173 L 3.376760388790501 -20.34872055837118 L 3.376760388790501 -20.34872055837118 Z " stroke="#191919" stroke-width="0.35 px" style="stroke-width:0.35;stroke-miterlimit:4;stroke-dasharray:none;fill:#f012f7;fill-opacity:1.0;fill-rule: evenodd"/>
<path id="Body003_f0014"  d="M 8.876760388790501 -29.875000000000004 L 3.376760388790501 -20.34872055837118 L 3.376760388790501 -20.34872055837118 L 8.876760388790501 -29.875000000000004 L 8.876760388790501 -29.875000000000004 Z " stroke="#191919" stroke-width="0.35 px" style="stroke-width:0.35;stroke-miterlimit:4;stroke-dasharray:none;fill:#f012f7;fill-opacity:1.0;fill-rule: evenodd"/>
<path id="Body003_f0015"  d="M 8.876760388790501 -29.875000000000004 L 8.876760388790501 -29.875000000000004 L -7.816e-14 -35.0000000000002 L -7.8e-14 -35.0000000000002 L 8.876760388790501 -29.875000000000004 Z " stroke="#191919" stroke-width="0.35 px" style="stroke-width:0.35;stroke-miterlimit:4;stroke-dasharray:none;fill:#f012f7;fill-opacity:1.0;fill-rule: evenodd"/>
<path id="Body003_f0016"  d="M -8.87676038879049 -29.874999999999993 L -8.87676038879049 -29.874999999999993 L -7.8e-14 -35.0000000000002 L -7.8e-14 -35.0000000000002 L -8.876760388790604 -29.875000000000195 Z " stroke="#191919" stroke-width="0.35 px" style="stroke-width:0.35;stroke-miterlimit:4;stroke-dasharray:none;fill:#f012f7;fill-opacity:1.0;fill-rule: evenodd"/>
<path id="Body003_f0017"  d="M -3.376760388790488 -20.348720558371166 L -3.376760388790488 -20.348720558371166 L -8.87676038879049 -29.874999999999993 L -8.87676038879049 -29.874999999999993 L -3.376760388790488 -20.348720558371166 Z " stroke="#191919" stroke-width="0.35 px" style="stroke-width:0.35;stroke-miterlimit:4;stroke-dasharray:none;fill:#f012f7;fill-opacity:1.0;fill-rule: evenodd"/>
<path id="Body003_f0018"  d="M -9.655444566227672 -16.72372055837117 L -9.655444566227672 -16.72372055837117 L -3.376760388790488 -20.348720558371166 L -3.376760388790488 -20.348720558371166 L -9.655444566227672 -16.72372055837117 Z " stroke="#191919" stroke-width="0.35 px" style="stroke-width:0.35;stroke-miterlimit:4;stroke-dasharray:none;fill:#f012f7;fill-opacity:1.0;fill-rule: evenodd"/>
<path id="Body003_f0019"  d="M -15.934128743664854 -13.098720558371173 L -9.655444566227672 -16.72372055837117 L -9.655444566227672 -16.72372055837117 L -15.934128743664854 -13.098720558371173 L -15.934128743664854 -13.098720558371173 Z " stroke="#191919" stroke-width="0.35 px" style="stroke-width:0.35;stroke-miterlimit:4;stroke-dasharray:none;fill:#f012f7;fill-opacity:1.0;fill-rule: evenodd"/>
<path id="Body003_f0020"  d="M -21.434128743664854 -22.625 L -15.934128743664854 -13.098720558371173 L -15.934128743664854 -13.098720558371173 L -21.434128743664854 -22.625 L -21.434128743664854 -22.625 Z " stroke="#191919" stroke-width="0.35 px" style="stroke-width:0.35;stroke-miterlimit:4;stroke-dasharray:none;fill:#f012f7;fill-opacity:1.0;fill-rule: evenodd"/>
<path id="Body003_f0021"  d="M -21.434128743664854 -22.625 L -21.434128743664854 -22.625 L -30.31088913245573 -17.50000000000007 L -30.31088913245573 -17.50000000000007 L -21.434128743664854 -22.625 Z " stroke="#191919" stroke-width="0.35 px" style="stroke-width:0.35;stroke-miterlimit:4;stroke-dasharray:none;fill:#f012f7;fill-opacity:1.0;fill-rule: evenodd"/>
<path id="Body003_f0022"  d="M -30.31088913245535 -7.250000000000001 L -30.31088913245535 -7.250000000000001 L -30.31088913245573 -17.50000000000007 L -30.31088913245573 -17.50000000000007 L -30.31088913245573 -7.25 Z " stroke="#191919" stroke-width="0.35 px" style="stroke-width:0.35;stroke-miterlimit:4;stroke-dasharray:none;fill:#f012f7;fill-opacity:1.0;fill-rule: evenodd"/>
<path id="Body003_f0023"  d="M -19.31088913245535 -7.250000000000001 L -19.31088913245535 -7.250000000000001 L -30.31088913245535 -7.250000000000001 L -30.31088913245535 -7.250000000000001 L -19.31088913245535 -7.250000000000001 Z " stroke="#191919" stroke-width="0.35 px" style="stroke-width:0.35;stroke-miterlimit:4;stroke-dasharray:none;fill:#f012f7;fill-opacity:1.0;fill-rule: evenodd"/>
<path id="Body003_f0024"  d="M -19.31088913245535 0.0 L -19.31088913245535 0.0 L -19.31088913245535 -7.250000000000001 L -19.31088913245535 -7.250000000000001 L -19.31088913245535 0.0 Z " stroke="#191919" stroke-width="0.35 px" style="stroke-width:0.35;stroke-miterlimit:4;stroke-dasharray:none;fill:#f012f7;fill-opacity:1.0;fill-rule: evenodd"/>
<path id="Body003_f0025"  d="M -19.310889132455355 7.25 L -19.31088913245535 0.0 L -19.31088913245535 0.0 L -19.310889132455355 7.25 L -19.310889132455355 7.25 Z " stroke="#191919" stroke-width="0.35 px" style="stroke-width:0.35;stroke-miterlimit:4;stroke-dasharray:none;fill:#f012f7;fill-opacity:1.0;fill-rule: evenodd"/>
<path id="Body003_f0026"  d="M -30.310889132455355 7.249999999999996 L -19.310889132455355 7.25 L -19.310889132455355 7.25 L -30.310889132455355 7.249999999999996 L -30.310889132455355 7.249999999999996 Z " stroke="#191919" stroke-width="0.35 px" style="stroke-width:0.35;stroke-miterlimit:4;stroke-dasharray:none;fill:#f012f7;fill-opacity:1.0;fill-rule: evenodd"/>
<path id="Body003_f0027"  d="M -30.310889132455355 7.249999999999996 L -30.310889132455355 7.249999999999996 L -30.310889132455728 17.50000000000034 L -30.310889132455728 17.50000000000034 L -30.310889132455355 7.249999999999996 Z " stroke="#191919" stroke-width="0.35 px" style="stroke-width:0.35;stroke-miterlimit:4;stroke-dasharray:none;fill:#f012f7;fill-opacity:1.0;fill-rule: evenodd"/>
<path id="Body003_f0028"  d="M -21.434128743664857 22.625000000000004 L -21.434128743664857 22.625000000000004 L -30.310889132455728 17.50000000000034 L -30.310889132455728 17.50000000000034 L -21.434128743665028 22.625000000000295 Z " stroke="#191919" stroke-width="0.35 px" style="stroke-width:0.35;stroke-miterlimit:4;stroke-dasharray:none;fill:#f012f7;fill-opacity:1.0;fill-rule: evenodd"/>
<path id="Body003_f0029"  d="M -15.934128743664857 13.098720558371179 L -15.934128743664857 13.098720558371179 L -21.434128743664857 22.625000000000004 L -21.434128743664857 22.625000000000004 L -15.934128743664857 13.098720558371179 Z " stroke="#191919" stroke-width="0.35 px" style="stroke-width:0.35;stroke-miterlimit:4;stroke-dasharray:none;fill:#f012f7;fill-opacity:1.0;fill-rule: evenodd"/>
<path id="Body003_f0030"  d="M -9.655444566227677 16.72372055837118 L -9.655444566227677 16.72372055837118 L -15.934128743664857 13.098720558371179 L -15.934128743664857 13.098720558371179 L -9.655444566227677 16.72372055837118 Z " stroke="#191919" stroke-width="0.35 px" style="stroke-width:0.35;stroke-miterlimit:4;stroke-dasharray:none;fill:#f012f7;fill-opacity:1.0;fill-rule: evenodd"/>
<path id="Body003_f0031"  d="M -3.376760388790496 20.348720558371177 L -9.655444566227677 16.72372055837118 L -9.655444566227677 16.72372055837118 L -3.376760388790497 20.348720558371177 L -3.3767603887904967 20.348720558371177 Z " stroke="#191919" stroke-width="0.35 px" style="stroke-width:0.35;stroke-miterlimit:4;stroke-dasharray:none;fill:#f012f7;fill-opacity:1.0;fill-rule: evenodd"/>
<path id="Body003_f0032"  d="M -8.876760388790496 29.875000000000004 L -3.3767603887904967 20.348720558371177 L -3.376760388790497 20.348720558371177 L -8.876760388790496 29.875000000000004 L -8.876760388790496 29.875000000000004 Z " stroke="#191919" stroke-width="0.35 px" style="stroke-width:0.35;stroke-miterlimit:4;stroke-dasharray:none;fill:#f012f7;fill-opacity:1.0;fill-rule: evenodd"/>
<path id="Body003_f0033"  d="M -8.876760388790496 29.875000000000004 L -8.876760388790496 29.875000000000004 L 0.0 35.0 L 0.0 35.0 L -8.876760388790496 29.875000000000004 Z " stroke="#191919" stroke-width="0.35 px" style="stroke-width:0.35;stroke-miterlimit:4;stroke-dasharray:none;fill:#f012f7;fill-opacity:1.0;fill-rule: evenodd"/>
<path id="Body003_f0034"  d="M 8.876760388790494 29.875 L 8.876760388790494 29.875 L 0.0 35.0 L 0.0 35.0 L 8.876760388790494 29.875 Z " stroke="#191919" stroke-width="0.35 px" style="stroke-width:0.35;stroke-miterlimit:4;stroke-dasharray:none;fill:#f012f7;fill-opacity:1.0;fill-rule: evenodd"/>
<path id="Body003_f0035"  d="M 3.376760388790495 20.348720558371173 L 3.376760388790495 20.348720558371173 L 8.876760388790494 29.875 L 8.876760388790494 29.875 L 3.376760388790495 20.348720558371173 Z " stroke="#191919" stroke-width="0.35 px" style="stroke-width:0.35;stroke-miterlimit:4;stroke-dasharray:none;fill:#f012f7;fill-opacity:1.0;fill-rule: evenodd"/>
<path id="Body003_f0036"  d="M 9.655444566227676 16.723720558371173 L 9.655444566227676 16.723720558371173 L 3.376760388790495 20.348720558371173 L 3.376760388790495 20.348720558371173 L 9.655444566227676 16.723720558371173 Z " stroke="#191919" stroke-width="0.35 px" style="stroke-width:0.35;stroke-miterlimit:4;stroke-dasharray:none;fill:#f012f7;fill-opacity:1.0;fill-rule: evenodd"/>
<path id="Body003_f0037"  d="M 15.934128743664855 13.098720558371173 L 9.655444566227676 16.723720558371173 L 9.655444566227676 16.723720558371173 L 15.934128743664855 13.098720558371173 L 15.934128743664855 13.098720558371173 Z " stroke="#191919" stroke-width="0.35 px" style="stroke-width:0.35;stroke-miterlimit:4;stroke-dasharray:none;fill:#f012f7;fill-opacity:1.0;fill-rule: evenodd"/>
<title>b'Snowflake'</title>
</g>
</svg>