<?xml version="1.0"?>
<!DOCTYPE svg PUBLIC "-//W3C//DTD SVG 1.1//EN" "http://www.w3.org/Graphics/SVG/1.1/DTD/svg11.dtd">
<svg width="61.83421383020892mm" height="71.21243556529821mm" viewBox="0 0 61.83421383020892 71.21243556529821" xmlns="http://www.w3.org/2000/svg" version="1.1">
<g id="Body001" transform="translate(30.917107,35.606218) scale(1,-1)">
<path id="Body001_f0000"  d="M 0.0 35.0 L 30.310889132455348 17.500000000000004 L 30.310889132455348 17.500000000000004 L 0.0 35.0 L 0.0 35.0 Z " stroke="#191919" stroke-width="0.35 px" style="stroke-width:0.35;stroke-miterlimit:4;stroke-dasharray:none;fill:#5e61c4;fill-opacity:1.0;fill-rule: evenodd"/>
<path id="Body001_f0001"  d="M -30.31088913245535 17.499999999999996 L 0.0 35.0 L 0.0 35.0 L -30.31088913245535 17.499999999999996 L -30.31088913245535 17.499999999999996 Z " stroke="#191919" stroke-width="0.35 px" style="stroke-width:0.35;stroke-miterlimit:4;stroke-dasharray:none;fill:#5e61c4;fill-opacity:1.0;fill-rule: evenodd"/>
<path id="Body001_f0002"  d="M -30.310889132455348 -17.500000000000004 L -30.31088913245535 17.499999999999996 L -30.31088913245535 17.499999999999996 L -30.310889132455348 -17.500000000000004 L -30.310889132455348 -17.500000000000004 Z " stroke="#191919" stroke-width="0.35 px" style="stroke-width:0.35;stroke-miterlimit:4;stroke-dasharray:none;fill:#5e61c4;fill-opacity:1.0;fill-rule: evenodd"/>
<path id="Body001_f0003"  d="M 0.0 -35.0 L -30.310889132455348 -17.500000000000004 L -30.310889132455348 -17.500000000000004 L 0.0 -35.0 L 0.0 -35.0 Z " stroke="#191919" stroke-width="0.35 px" style="stroke-width:0.35;stroke-miterlimit:4;stroke-dasharray:none;fill:#5e61c4;fill-opacity:1.0;fill-rule: evenodd"/>
<path id="Body001_f0004"  d="M 30.31088913245535 -17.499999999999996 L 0.0 -35.0 L 0.0 -35.0 L 30.31088913245535 -17.499999999999996 L 30.31088913245535 -17.499999999999996 Z " stroke="#191919" stroke-width="0.35 px" style="stroke-width:0.35;stroke-miterlimit:4;stroke-dasharray:none;fill:#5e61c4;fill-opacity:1.0;fill-rule: evenodd"/>
<path id="Body001_f0005"  d="M 30.310889132455348 17.500000000000004 L 30.31088913245535 -17.499999999999996 L 30.31088913245535 -17.499999999999996 L 30.310889132455348 17.500000000000004 L 30.310889132455348 17.500000000000004 Z " stroke="#191919" stroke-width="0.35 px" style="stroke-width:0.35;stroke-miterlimit:4;stroke-dasharray:none;fill:#5e61c4;fill-opacity:1.0;fill-rule: evenodd"/>
<path id="Body001_f0006"  d="M 0.0 35.0 L -30.31088913245535 17.499999999999996 L -30.310889132455348 -17.500000000000004 L 0.0 -35.0 L 30.31088913245535 -17.499999999999996 L 30.310889132455348 17.500000000000004 L 0.0 35.0 Z " stroke="#191919" stroke-width="0.35 px" style="stroke-width:0.35;stroke-miterlimit:4;stroke-dasharray:none;fill:#5e61c4;fill-opacity:1.0;fill-rule: evenodd"/>
<path id="Body001_f0007"  d="M 30.310889132455348 17.500000000000004 L 0.0 35.0 L -30.31088913245535 17.499999999999996 L -30.310889132455348 -17.500000000000004 L 0.0 -35.0 L 30.31088913245535 -17.499999999999996 L 30.310889132455348 17.500000000000004 Z " stroke="#191919" stroke-width="0.35 px" style="stroke-width:0.35;stroke-miterlimit:4;stroke-dasharray:none;fill:#5e61c4;fill-opacity:1.0;fill-rule: evenodd"/>
<title>b'Top piece'</title>
</g>
</svg>